<?xml version="1.0" encoding="UTF-8" standalone="no"?>
<svg
   xmlns:dc="http://purl.org/dc/elements/1.1/"
   xmlns:cc="http://creativecommons.org/ns#"
   xmlns:rdf="http://www.w3.org/1999/02/22-rdf-syntax-ns#"
   xmlns:svg="http://www.w3.org/2000/svg"
   xmlns="http://www.w3.org/2000/svg"
   id="svg8"
   version="1.1"
   viewBox="0 0 26.458333 26.458335"
   height="100"
   width="100">
  <defs
     id="defs2" />
  <metadata
     id="metadata5">
    <rdf:RDF>
      <cc:Work
         rdf:about="">
        <dc:format>image/svg+xml</dc:format>
        <dc:type
           rdf:resource="http://purl.org/dc/dcmitype/StillImage" />
        <dc:title></dc:title>
      </cc:Work>
    </rdf:RDF>
  </metadata>
  <g
     transform="translate(0,-270.54165)"
     id="layer1">
    <circle
       r="5.1737361"
       cy="283.80777"
       cx="13.1615"
       id="path874-5-4"
       style="opacity:1;fill:none;fill-opacity:1;stroke:#e3d7f4;stroke-width:1.30935657;stroke-linecap:butt;stroke-linejoin:round;stroke-miterlimit:4;stroke-dasharray:none;stroke-dashoffset:0;stroke-opacity:1" />
    <circle
       r="10.998286"
       cy="283.80777"
       cx="13.161499"
       id="path874-5-4-3"
       style="opacity:1;fill:none;fill-opacity:1;stroke:#b380ff;stroke-width:1.6366955;stroke-linecap:butt;stroke-linejoin:round;stroke-miterlimit:4;stroke-dasharray:none;stroke-dashoffset:0;stroke-opacity:1" />
    <path
       id="path874-5-2"
       transform="matrix(0.26458333,0,0,0.26458333,0,270.54165)"
       d="m 2.1328125,47.662109 v 4.945313 l 40.8626625,-1.608033 -0.0014,-1.722883 z m 54.3612975,1.614397 0.0021,1.722883 40.86325,1.608033 v -4.945313 z"
       style="color:#000000;font-style:normal;font-variant:normal;font-weight:normal;font-stretch:normal;font-size:medium;line-height:normal;font-family:sans-serif;font-variant-ligatures:normal;font-variant-position:normal;font-variant-caps:normal;font-variant-numeric:normal;font-variant-alternates:normal;font-feature-settings:normal;text-indent:0;text-align:start;text-decoration:none;text-decoration-line:none;text-decoration-style:solid;text-decoration-color:#000000;letter-spacing:normal;word-spacing:normal;text-transform:none;writing-mode:lr-tb;direction:ltr;text-orientation:mixed;dominant-baseline:auto;baseline-shift:baseline;text-anchor:start;white-space:normal;shape-padding:0;clip-rule:nonzero;display:inline;overflow:visible;visibility:visible;opacity:1;isolation:auto;mix-blend-mode:normal;color-interpolation:sRGB;color-interpolation-filters:linearRGB;solid-color:#000000;solid-opacity:1;vector-effect:none;fill:#c6afe9;fill-opacity:1;fill-rule:nonzero;stroke:none;stroke-width:4.94874859;stroke-linecap:square;stroke-linejoin:miter;stroke-miterlimit:4;stroke-dasharray:none;stroke-dashoffset:0;stroke-opacity:1;color-rendering:auto;image-rendering:auto;shape-rendering:auto;text-rendering:auto;enable-background:accumulate" />
    <path
       id="path874-5-2-8"
       transform="matrix(0.26458333,0,0,0.26458333,0,270.54165)"
       d="m 47.273438,2.5214844 1.610594,40.8685066 1.722882,-0.0014 1.611836,-40.8671476 z m 3.333476,54.3678216 -1.722882,0.0014 -1.610594,40.865188 h 4.945312 z"
       style="color:#000000;font-style:normal;font-variant:normal;font-weight:normal;font-stretch:normal;font-size:medium;line-height:normal;font-family:sans-serif;font-variant-ligatures:normal;font-variant-position:normal;font-variant-caps:normal;font-variant-numeric:normal;font-variant-alternates:normal;font-feature-settings:normal;text-indent:0;text-align:start;text-decoration:none;text-decoration-line:none;text-decoration-style:solid;text-decoration-color:#000000;letter-spacing:normal;word-spacing:normal;text-transform:none;writing-mode:lr-tb;direction:ltr;text-orientation:mixed;dominant-baseline:auto;baseline-shift:baseline;text-anchor:start;white-space:normal;shape-padding:0;clip-rule:nonzero;display:inline;overflow:visible;visibility:visible;opacity:1;isolation:auto;mix-blend-mode:normal;color-interpolation:sRGB;color-interpolation-filters:linearRGB;solid-color:#000000;solid-opacity:1;vector-effect:none;fill:#c6afe9;fill-opacity:1;fill-rule:nonzero;stroke:none;stroke-width:4.94874859;stroke-linecap:square;stroke-linejoin:miter;stroke-miterlimit:4;stroke-dasharray:none;stroke-dashoffset:0;stroke-opacity:1;color-rendering:auto;image-rendering:auto;shape-rendering:auto;text-rendering:auto;enable-background:accumulate" />
    <g
       transform="matrix(1.3093564,0,0,1.3093564,0.13489961,-92.140354)"
       id="text908"
       style="font-style:normal;font-weight:normal;font-size:13.18248844px;line-height:1.25;font-family:sans-serif;letter-spacing:0px;word-spacing:0px;fill:#5a2ca0;fill-opacity:1;stroke:none;stroke-width:0.32956219"
       aria-label="{}">
      <path
         id="path977"
         style="fill:#5a2ca0;stroke-width:0.32956219"
         d="M 8.7506832,293.38567 H 7.7851689 q -1.1521804,0 -1.8730977,-0.64368 -0.7144806,-0.63724 -0.7144806,-1.84735 v -0.95908 q 0,-1.08781 -0.5342512,-1.6993 -0.5342513,-0.61793 -1.6349376,-0.61793 H 2.700127 v -1.00414 h 0.3282748 q 1.1006863,0 1.6349376,-0.61149 0.5342512,-0.61793 0.5342512,-1.70574 v -0.95908 q 0,-1.21011 0.7144806,-1.84735 0.7209173,-0.64367 1.8730977,-0.64367 h 0.9655143 v 0.88827 H 8.0168923 q -0.8753996,0 -1.2744788,0.40551 -0.3926425,0.40552 -0.3926425,1.30667 v 1.12643 q 0,0.89471 -0.4956307,1.5062 -0.4956306,0.60506 -1.377467,0.95908 v 0.15448 q 0.8818364,0.35402 1.377467,0.96552 0.4956307,0.60505 0.4956307,1.49976 v 1.12644 q 0,0.90114 0.3926425,1.30666 0.3990792,0.40551 1.2744788,0.40551 h 0.7337909 z" />
      <path
         id="path979"
         style="fill:#5a2ca0;stroke-width:0.32956219"
         d="m 17.208588,287.61833 h -0.328275 q -1.100686,0 -1.634937,0.61793 -0.534252,0.61149 -0.534252,1.6993 v 0.95908 q 0,1.21011 -0.720917,1.84735 -0.71448,0.64368 -1.866661,0.64368 h -0.965514 v -0.88828 h 0.733791 q 0.875399,0 1.268042,-0.40551 0.399079,-0.40552 0.399079,-1.30666 v -1.12644 q 0,-0.89471 0.495631,-1.49976 0.49563,-0.6115 1.377467,-0.96552 v -0.15448 q -0.881837,-0.35402 -1.377467,-0.95908 -0.495631,-0.61149 -0.495631,-1.5062 v -1.12643 q 0,-0.90115 -0.399079,-1.30667 -0.392643,-0.40551 -1.268042,-0.40551 h -0.733791 v -0.88827 h 0.965514 q 1.152181,0 1.866661,0.64367 0.720917,0.63724 0.720917,1.84735 v 0.95908 q 0,1.08781 0.534252,1.70574 0.534251,0.61149 1.634937,0.61149 h 0.328275 z" />
    </g>
  </g>
</svg>
