<?xml version="1.0" encoding="UTF-8" standalone="no"?>
<svg
   xmlns:dc="http://purl.org/dc/elements/1.1/"
   xmlns:cc="http://creativecommons.org/ns#"
   xmlns:rdf="http://www.w3.org/1999/02/22-rdf-syntax-ns#"
   xmlns:svg="http://www.w3.org/2000/svg"
   xmlns="http://www.w3.org/2000/svg"
   id="svg8"
   version="1.1"
   viewBox="0 0 11.90625 11.90625"
   height="45"
   width="45">
  <defs
     id="defs2" />
  <metadata
     id="metadata5">
    <rdf:RDF>
      <cc:Work
         rdf:about="">
        <dc:format>image/svg+xml</dc:format>
        <dc:type
           rdf:resource="http://purl.org/dc/dcmitype/StillImage" />
        <dc:title></dc:title>
      </cc:Work>
    </rdf:RDF>
  </metadata>
  <g
     transform="translate(0,-285.09372)"
     id="layer1">
    <g
       transform="matrix(0.26458333,0,0,0.26458333,-65.035991,282.36804)"
       id="g856">
      <path
         id="rect5147"
         d="m 283.83088,10.570825 c -0.94616,-0.04773 -3.36017,0.211235 -7.53344,3.047964 -2.32757,-0.65463 -4.79954,-0.983854 -7.27259,-0.983854 -2.47304,-2e-6 -4.94783,0.329224 -7.27541,0.983854 -5.56435,-3.7459327 -8.00125,-2.982752 -8.00125,-2.982752 -1.60021,4.000515 -0.58015,6.981853 -0.2892,7.70922 -1.85479,2.036626 -2.98276,4.655755 -2.98276,7.819798 0,11.128704 6.76453,13.639173 13.23809,14.366539 -0.83648,0.727367 -1.59972,1.9989 -1.85429,3.890053 -1.67296,0.763733 -5.85625,2.001889 -8.47477,-2.398678 -0.54552,-0.872838 -2.18292,-3.019118 -4.47412,-2.98275 -2.43668,0.03636 -0.98147,1.38249 0.0368,1.928015 1.23652,0.690997 2.65543,3.271898 2.98274,4.108371 0.5819,1.636574 2.4718,4.765016 9.78183,3.419389 0,2.436676 0.0368,4.727289 0.0368,5.418285 0,0.568135 -0.3041,1.195254 -1.05757,1.375128 h 16.54974 c -0.72186,-0.189557 -1.01789,-0.817965 -1.01789,-1.375128 0,-0.981943 0.0368,-4.109848 0.0368,-8.001256 0,-2.727625 -0.90736,-4.472221 -1.96203,-5.381429 6.47356,-0.727366 13.2721,-3.201466 13.2721,-14.366539 0,-3.20041 -1.12512,-5.783172 -2.97991,-7.819798 0.29094,-0.727367 1.30816,-3.708705 -0.29205,-7.70922 0,0 -0.15243,-0.0493 -0.46782,-0.06522 z"
         style="opacity:1;fill:#ffffff;fill-opacity:1;stroke:none;stroke-width:2.74333453;stroke-linecap:square;stroke-linejoin:bevel;stroke-miterlimit:4;stroke-dasharray:none;stroke-dashoffset:0;stroke-opacity:1" />
      <g
         transform="matrix(0.03914461,0,0,0.03914461,247.24961,11.249454)"
         id="g5132"
         style="fill:none" />
    </g>
  </g>
</svg>
