<?xml version="1.0" encoding="UTF-8" standalone="no"?>
<svg
   xmlns:dc="http://purl.org/dc/elements/1.1/"
   xmlns:cc="http://creativecommons.org/ns#"
   xmlns:rdf="http://www.w3.org/1999/02/22-rdf-syntax-ns#"
   xmlns:svg="http://www.w3.org/2000/svg"
   xmlns="http://www.w3.org/2000/svg"
   id="svg8"
   version="1.1"
   viewBox="0 0 11.90625 11.90625"
   height="45"
   width="45">
  <defs
     id="defs2" />
  <metadata
     id="metadata5">
    <rdf:RDF>
      <cc:Work
         rdf:about="">
        <dc:format>image/svg+xml</dc:format>
        <dc:type
           rdf:resource="http://purl.org/dc/dcmitype/StillImage" />
        <dc:title></dc:title>
      </cc:Work>
    </rdf:RDF>
  </metadata>
  <g
     transform="translate(0,-285.09372)"
     id="layer1">
    <g
       transform="matrix(0.26458333,0,0,0.26458333,-65.035991,282.36804)"
       id="g856">
      <path
         id="rect860"
         d="m 251.50203,11.116684 c -6.87756,0.243324 -6.66205,10.514356 0.21966,10.46898 2.89248,-9.36e-4 5.23631,-2.346992 5.23449,-5.239483 -0.001,-2.976538 -2.4802,-5.353404 -5.45415,-5.229497 z m 27.73005,13.716509 c -3.49656,-0.129631 -6.78097,1.67468 -8.54691,4.695314 h -0.11982 v -3.971421 h -8.66174 v 29.058032 h 9.02119 V 40.239617 c 0,-3.790618 0.71971,-7.461083 5.41921,-7.461083 4.63272,0 4.69282,4.336163 4.69282,7.705708 v 14.130876 h 9.02369 l 0.002,-15.940606 c 0,-7.82561 -1.68569,-13.841319 -10.83092,-13.841319 z m -32.03098,0.723893 v 29.058032 h 9.03118 V 25.557086 Z"
         style="opacity:1;fill:#ffffff;fill-opacity:1;stroke:none;stroke-width:3.34846449;stroke-linecap:square;stroke-linejoin:bevel;stroke-miterlimit:4;stroke-dasharray:none;stroke-dashoffset:0;stroke-opacity:1" />
    </g>
  </g>
</svg>
