<?xml version="1.0" encoding="UTF-8" standalone="no"?>
<svg
   xmlns:dc="http://purl.org/dc/elements/1.1/"
   xmlns:cc="http://creativecommons.org/ns#"
   xmlns:rdf="http://www.w3.org/1999/02/22-rdf-syntax-ns#"
   xmlns:svg="http://www.w3.org/2000/svg"
   xmlns="http://www.w3.org/2000/svg"
   id="svg8"
   version="1.1"
   viewBox="0 0 19.843749 19.843749"
   height="75"
   width="75">
  <defs
     id="defs2" />
  <metadata
     id="metadata5">
    <rdf:RDF>
      <cc:Work
         rdf:about="">
        <dc:format>image/svg+xml</dc:format>
        <dc:type
           rdf:resource="http://purl.org/dc/dcmitype/StillImage" />
        <dc:title></dc:title>
      </cc:Work>
    </rdf:RDF>
  </metadata>
  <g
     transform="translate(0,-277.15625)"
     id="layer1">
    <path
       id="rect853"
       d="m 2.4353574,278.46068 c -0.218097,0 -0.4279105,0.0317 -0.6281509,0.0868 l 7.9497546,7.45172 8.3138289,-7.46026 c -0.190305,-0.0494 -0.388886,-0.0785 -0.594945,-0.0785 z m 17.2809036,1.61915 -9.22845,8.28303 a 1.1207753,1.1255599 0 0 1 -1.5115018,-0.0178 L 0.18528676,280.1061 c -0.0730572,0.22931 -0.11312306,0.47348 -0.11312306,0.72777 v 11.65234 c 0,1.31498 1.053825,2.37331 2.3631908,2.37331 H 17.47584 c 1.309366,0 2.363576,-1.05833 2.363576,-2.37331 v -11.65234 c 0,-0.26422 -0.04453,-0.51712 -0.123164,-0.75415 z"
       style="opacity:1;fill:#ffffff;fill-opacity:1;stroke:none;stroke-width:0.0807959;stroke-miterlimit:4;stroke-dasharray:none;stroke-dashoffset:0;stroke-opacity:1" />
  </g>
</svg>
