<?xml version="1.0" encoding="UTF-8" standalone="no"?>
<svg
   xmlns:dc="http://purl.org/dc/elements/1.1/"
   xmlns:cc="http://creativecommons.org/ns#"
   xmlns:rdf="http://www.w3.org/1999/02/22-rdf-syntax-ns#"
   xmlns:svg="http://www.w3.org/2000/svg"
   xmlns="http://www.w3.org/2000/svg"
   id="svg964"
   xml:space="preserve"
   viewBox="-26 -20 60.17143 59.616"
   height="54"
   width="54"
   version="1.1"><metadata
   id="metadata968"><rdf:RDF><cc:Work
       rdf:about=""><dc:format>image/svg+xml</dc:format><dc:type
         rdf:resource="http://purl.org/dc/dcmitype/StillImage" /><dc:title></dc:title></cc:Work></rdf:RDF></metadata>
	<defs
   id="defs944">
		<clipPath
   id="hexagon">
			<path
   id="path926"
   d="M 435.279,113.284 247.191,4.692 c -10.835,-6.257 -28.567,-6.257 -39.402,0 L 19.701,113.284 C 8.865,119.539 0,134.896 0,147.408 v 217.185 c 0.843,14.571 8.286,26.639 19.701,34.123 l 188.088,108.592 c 10.835,6.257 28.567,6.257 39.402,0 L 435.279,398.716 c 12.248,-8.146 19.219,-20.408 19.701,-34.123 V 147.408 c -0.44,-13.165 -8.323,-26.443 -19.701,-34.124 z" />
		</clipPath>

		<linearGradient
   y2="235.867"
   x2="261.77249"
   y1="55.8074"
   x1="121.0946"
   gradientUnits="userSpaceOnUse"
   id="top">
			<stop
   id="stop929"
   style="stop-color: #A47EDE"
   offset="0" />
			<stop
   id="stop931"
   style="stop-color: #9866D3"
   offset="1" />
		</linearGradient>

		<linearGradient
   y2="372.77261"
   x2="443.46381"
   y1="207.291"
   x1="314.17542"
   gradientUnits="userSpaceOnUse"
   id="centre">
			<stop
   id="stop934"
   style="stop-color: #3B009B"
   offset="0" />
			<stop
   id="stop936"
   style="stop-color: #390086"
   offset="1" />
		</linearGradient>

		<linearGradient
   y2="502.09399"
   x2="252.74049"
   y1="326.16309"
   x1="115.2882"
   gradientUnits="userSpaceOnUse"
   id="bottom">
			<stop
   id="stop939"
   style="stop-color: #340084"
   offset="0" />
			<stop
   id="stop941"
   style="stop-color: #290064"
   offset="1" />
		</linearGradient>
	</defs>

	<g
   transform="matrix(0.11322432,0,0,0.11322432,-21.863136,-19.087677)"
   id="g952"
   clip-path="url(#hexagon)">
		<rect
   style="fill:url(#centre)"
   id="rect946"
   height="273.49301"
   width="267.46399"
   y="124.487"
   x="222.588" />
		<polygon
   style="fill:url(#bottom)"
   id="polygon948"
   points="490.052,538.353 490.052,407.802 145.845,208.63 -29.911,208.63 -29.911,538.353 " />
		<polygon
   style="fill:url(#top)"
   id="polygon950"
   points="-29.911,405.093 490.052,104.208 490.052,-14.513 -29.911,-14.513 " />
	</g>

	<path
   style="fill:#ffffff;stroke-width:0.11322432"
   d="M -13.277341,9.8978564 C -13.378223,-6.8694156 9.0798207,-14.273155 18.764688,1.3066235 L 11.33321,5.606884 C 6.8470373,-1.8131596 -4.291858,0.84002582 -4.6916557,9.8977467 -4.5716366,18.245667 6.3764789,22.12348 11.333667,14.188159 l 7.431479,4.300142 c -8.535079,14.816878 -31.612008,9.486053 -32.042487,-8.5904446 z"
   id="c" />

	<g
   transform="matrix(0.11322432,0,0,0.11322432,-21.863136,-19.087677)"
   data-name="♯"
   aria-label="♯"
   id="sharp">
		<polygon
   style="fill:#ffffff"
   id="polygon955"
   points="326,213 338.5,213 329.959,295.5 317.224,295.5 " />
		<polygon
   style="fill:#ffffff"
   id="polygon957"
   points="352.776,213 365.276,213 356.735,295.5 344,295.5 " />
		<rect
   style="fill:#ffffff"
   id="rect959"
   height="12.072"
   width="62.5"
   y="232.592"
   x="312" />
		<rect
   style="fill:#ffffff"
   id="rect961"
   height="12.072"
   width="62.5"
   y="262"
   x="308.5" />
	</g>
</svg>