<?xml version="1.0" encoding="UTF-8" standalone="no"?>
<svg
   xmlns:dc="http://purl.org/dc/elements/1.1/"
   xmlns:cc="http://creativecommons.org/ns#"
   xmlns:rdf="http://www.w3.org/1999/02/22-rdf-syntax-ns#"
   xmlns:svg="http://www.w3.org/2000/svg"
   xmlns="http://www.w3.org/2000/svg"
   id="svg964"
   xml:space="preserve"
   viewBox="-26 -20 60.17143 59.616"
   height="54"
   width="54"
   version="1.1"><metadata
   id="metadata968"><rdf:RDF><cc:Work
       rdf:about=""><dc:format>image/svg+xml</dc:format><dc:type
         rdf:resource="http://purl.org/dc/dcmitype/StillImage" /><dc:title></dc:title></cc:Work></rdf:RDF></metadata>
	<defs
   id="defs944">
		<clipPath
   id="hexagon">
			<path
   id="path926"
   d="M 435.279,113.284 247.191,4.692 c -10.835,-6.257 -28.567,-6.257 -39.402,0 L 19.701,113.284 C 8.865,119.539 0,134.896 0,147.408 v 217.185 c 0.843,14.571 8.286,26.639 19.701,34.123 l 188.088,108.592 c 10.835,6.257 28.567,6.257 39.402,0 L 435.279,398.716 c 12.248,-8.146 19.219,-20.408 19.701,-34.123 V 147.408 c -0.44,-13.165 -8.323,-26.443 -19.701,-34.124 z" />
		</clipPath>

		<linearGradient
   y2="235.867"
   x2="261.77249"
   y1="55.8074"
   x1="121.0946"
   gradientUnits="userSpaceOnUse"
   id="top">
			<stop
   id="stop929"
   style="stop-color: #A47EDE"
   offset="0" />
			<stop
   id="stop931"
   style="stop-color: #9866D3"
   offset="1" />
		</linearGradient>

		<linearGradient
   y2="372.77261"
   x2="443.46381"
   y1="207.291"
   x1="314.17542"
   gradientUnits="userSpaceOnUse"
   id="centre">
			<stop
   id="stop934"
   style="stop-color: #3B009B"
   offset="0" />
			<stop
   id="stop936"
   style="stop-color: #390086"
   offset="1" />
		</linearGradient>

		<linearGradient
   y2="502.09399"
   x2="252.74049"
   y1="326.16309"
   x1="115.2882"
   gradientUnits="userSpaceOnUse"
   id="bottom">
			<stop
   id="stop939"
   style="stop-color: #340084"
   offset="0" />
			<stop
   id="stop941"
   style="stop-color: #290064"
   offset="1" />
		</linearGradient>
	<style
   id="style5216">.cls-1{fill:#5c2d91;}.cls-2,.cls-3{fill:#fff;}.cls-2{opacity:0.1;}.cls-4{fill:#f2f2f2;}</style></defs>

	

	

	
<g
   transform="matrix(0.90964386,0,0,0.90964386,-24.603598,-19.572343)"
   id="g5258"><circle
     style="fill:#5c2d91"
     class="cls-1"
     cx="32"
     cy="32"
     r="32"
     id="circle5222" /><path
     style="opacity:0.1;fill:#ffffff"
     class="cls-2"
     d="M 9.82,9 A 32,32 0 1 0 55,54.18 Z"
     id="path5224" /><path
     style="fill:#ffffff"
     class="cls-3"
     d="m 7.4,37.25 a 1.35,1.35 0 0 1 -1,-0.42 1.38,1.38 0 0 1 -0.41,-1 1.4,1.4 0 0 1 0.41,-1 1.34,1.34 0 0 1 1,-0.43 1.37,1.37 0 0 1 1,0.43 1.39,1.39 0 0 1 0.42,1 1.37,1.37 0 0 1 -0.42,1 1.38,1.38 0 0 1 -1,0.42 z"
     id="path5226" /><path
     style="fill:#ffffff"
     class="cls-3"
     d="M 27.27,37 H 24.65 L 15.28,22.46 A 6,6 0 0 1 14.7,21.32 h -0.08 a 18.72,18.72 0 0 1 0.1,2.5 V 37 H 12.59 V 18.77 h 2.77 l 9.12,14.28 q 0.57,0.89 0.74,1.22 h 0.05 A 19.28,19.28 0 0 1 25.14,31.59 V 18.77 h 2.13 z"
     id="path5228" /><path
     style="fill:#ffffff"
     class="cls-3"
     d="M 41.69,37 H 32 V 18.77 h 9.24 v 1.93 h -7.06 v 6.06 h 6.58 v 1.92 H 34.18 V 35 h 7.52 z"
     id="path5230" /><path
     style="fill:#ffffff"
     class="cls-3"
     d="M 56,20.7 H 50.7 V 37 H 48.57 V 20.7 H 43.33 V 18.77 H 56 Z"
     id="path5232" /><path
     style="fill:#f2f2f2"
     class="cls-4"
     d="m 26.12,49.4 a 4.93,4.93 0 0 1 -2.32,0.49 3.74,3.74 0 0 1 -2.87,-1.15 4.26,4.26 0 0 1 -1.08,-3 4.46,4.46 0 0 1 1.21,-3.26 4.12,4.12 0 0 1 3.08,-1.24 4.93,4.93 0 0 1 2,0.35 v 1 a 4,4 0 0 0 -2,-0.5 3.06,3.06 0 0 0 -2.35,1 3.64,3.64 0 0 0 -0.9,2.58 3.47,3.47 0 0 0 0.84,2.45 2.86,2.86 0 0 0 2.21,0.91 4.14,4.14 0 0 0 2.19,-0.56 z"
     id="path5234" /><path
     style="fill:#f2f2f2"
     class="cls-4"
     d="M 30.21,49.89 A 2.78,2.78 0 0 1 28.08,49 a 3.11,3.11 0 0 1 -0.79,-2.23 3.24,3.24 0 0 1 0.83,-2.36 3,3 0 0 1 2.23,-0.85 2.69,2.69 0 0 1 2.09,0.83 3.28,3.28 0 0 1 0.75,2.29 3.22,3.22 0 0 1 -0.81,2.3 2.84,2.84 0 0 1 -2.17,0.91 z m 0.07,-5.47 a 1.83,1.83 0 0 0 -1.46,0.63 2.59,2.59 0 0 0 -0.54,1.74 2.45,2.45 0 0 0 0.54,1.68 1.85,1.85 0 0 0 1.46,0.62 1.76,1.76 0 0 0 1.43,-0.6 2.62,2.62 0 0 0 0.5,-1.72 2.66,2.66 0 0 0 -0.5,-1.73 1.75,1.75 0 0 0 -1.43,-0.62 z"
     id="path5236" /><path
     style="fill:#f2f2f2"
     class="cls-4"
     d="m 37.86,44.72 a 1.18,1.18 0 0 0 -0.73,-0.19 1.23,1.23 0 0 0 -1,0.58 2.68,2.68 0 0 0 -0.41,1.58 v 3.06 h -1 v -6 h 1 V 45 45 a 2.1,2.1 0 0 1 0.63,-1 1.43,1.43 0 0 1 0.94,-0.35 1.57,1.57 0 0 1 0.57,0.08 z"
     id="path5238" /><path
     style="fill:#f2f2f2"
     class="cls-4"
     d="m 43.72,47 h -4.23 a 2.24,2.24 0 0 0 0.51,1.54 1.86,1.86 0 0 0 1.42,0.54 3,3 0 0 0 1.86,-0.67 v 0.9 a 3.48,3.48 0 0 1 -2.09,0.57 2.54,2.54 0 0 1 -2,-0.82 3.35,3.35 0 0 1 -0.73,-2.3 3.28,3.28 0 0 1 0.79,-2.28 2.55,2.55 0 0 1 2,-0.88 2.26,2.26 0 0 1 1.82,0.76 3.18,3.18 0 0 1 0.64,2.12 z m -1,-0.81 a 2,2 0 0 0 -0.4,-1.29 1.37,1.37 0 0 0 -1.1,-0.46 1.55,1.55 0 0 0 -1.15,0.49 2.21,2.21 0 0 0 -0.59,1.27 z"
     id="path5240" /></g></svg>