<?xml version="1.0" encoding="UTF-8" standalone="no"?>
<svg
   xmlns:dc="http://purl.org/dc/elements/1.1/"
   xmlns:cc="http://creativecommons.org/ns#"
   xmlns:rdf="http://www.w3.org/1999/02/22-rdf-syntax-ns#"
   xmlns:svg="http://www.w3.org/2000/svg"
   xmlns="http://www.w3.org/2000/svg"
   id="svg964"
   xml:space="preserve"
   viewBox="-26 -20 60.17143 59.616"
   height="54"
   width="54"
   version="1.1"><metadata
   id="metadata968"><rdf:RDF><cc:Work
       rdf:about=""><dc:format>image/svg+xml</dc:format><dc:type
         rdf:resource="http://purl.org/dc/dcmitype/StillImage" /><dc:title></dc:title></cc:Work></rdf:RDF></metadata>
	<defs
   id="defs944">
		<clipPath
   id="hexagon">
			<path
   id="path926"
   d="M 435.279,113.284 247.191,4.692 c -10.835,-6.257 -28.567,-6.257 -39.402,0 L 19.701,113.284 C 8.865,119.539 0,134.896 0,147.408 v 217.185 c 0.843,14.571 8.286,26.639 19.701,34.123 l 188.088,108.592 c 10.835,6.257 28.567,6.257 39.402,0 L 435.279,398.716 c 12.248,-8.146 19.219,-20.408 19.701,-34.123 V 147.408 c -0.44,-13.165 -8.323,-26.443 -19.701,-34.124 z" />
		</clipPath>

		<linearGradient
   y2="235.867"
   x2="261.77249"
   y1="55.8074"
   x1="121.0946"
   gradientUnits="userSpaceOnUse"
   id="top">
			<stop
   id="stop929"
   style="stop-color: #A47EDE"
   offset="0" />
			<stop
   id="stop931"
   style="stop-color: #9866D3"
   offset="1" />
		</linearGradient>

		<linearGradient
   y2="372.77261"
   x2="443.46381"
   y1="207.291"
   x1="314.17542"
   gradientUnits="userSpaceOnUse"
   id="centre">
			<stop
   id="stop934"
   style="stop-color: #3B009B"
   offset="0" />
			<stop
   id="stop936"
   style="stop-color: #390086"
   offset="1" />
		</linearGradient>

		<linearGradient
   y2="502.09399"
   x2="252.74049"
   y1="326.16309"
   x1="115.2882"
   gradientUnits="userSpaceOnUse"
   id="bottom">
			<stop
   id="stop939"
   style="stop-color: #340084"
   offset="0" />
			<stop
   id="stop941"
   style="stop-color: #290064"
   offset="1" />
		</linearGradient>
	<style
   id="style5216">.cls-1{fill:#5c2d91;}.cls-2,.cls-3{fill:#fff;}.cls-2{opacity:0.1;}.cls-4{fill:#f2f2f2;}</style></defs>

	

	

	
<g
   transform="matrix(1.1142857,0,0,1.1142857,-217.18259,-209.89244)"
   id="g5307"
   style="fill:none;stroke:none;stroke-linecap:square;stroke-miterlimit:10"><g
     clip-path="url(#p.0)"
     id="g5285"><path
       style="fill:#323569;fill-rule:nonzero;stroke:none;stroke-width:0.1912968;stroke-linecap:square;stroke-miterlimit:10"
       d="m 188.93586,179.78677 -0.67851,-1.73662 h -2.19095 l -0.67252,1.73662 h -0.64264 l 2.16105,-5.48483 h 0.53205 l 2.1491,5.48483 z m -0.87877,-2.31051 -0.63368,-1.69177 q -0.12254,-0.31983 -0.25405,-0.78911 -0.0837,0.35869 -0.23613,0.78911 l -0.64264,1.69177 z m 5.37126,0.85785 q 0,0.72035 -0.52308,1.12388 -0.52309,0.40351 -1.41979,0.40351 -0.97142,0 -1.49451,-0.25107 v -0.61275 q 0.33478,0.14347 0.72932,0.22716 0.39755,0.0808 0.78612,0.0808 0.63665,0 0.95648,-0.24211 0.32281,-0.2421 0.32281,-0.66953 0,-0.28397 -0.11657,-0.4663 -0.11358,-0.18233 -0.3796,-0.33475 -0.26602,-0.15245 -0.81301,-0.34674 -0.76219,-0.27199 -1.09099,-0.64563 -0.32581,-0.37362 -0.32581,-0.97739 0,-0.63069 0.47526,-1.00431 0.47525,-0.37363 1.2554,-0.37363 0.81599,0 1.49748,0.2989 l -0.19728,0.55296 q -0.67551,-0.28395 -1.31515,-0.28395 -0.50516,0 -0.78911,0.2182 -0.28397,0.21521 -0.28397,0.60079 0,0.28395 0.10463,0.46628 0.10464,0.17935 0.35272,0.33177 0.25108,0.14946 0.76219,0.33479 0.85785,0.30487 1.18066,0.65758 0.32581,0.34971 0.32581,0.91164 z m 4.57916,-2.4181 q 0,0.82795 -0.56792,1.2763 -0.56492,0.44536 -1.61705,0.44536 h -0.64264 v 2.1491 h -0.63665 v -5.46391 h 1.41679 q 2.04747,0 2.04747,1.59315 z m -2.82761,1.17766 h 0.57091 q 0.84588,0 1.2225,-0.272 0.37662,-0.27499 0.37662,-0.87578 0,-0.54101 -0.3557,-0.80703 -0.3527,-0.26603 -1.10594,-0.26603 h -0.70839 z m 3.78783,2.29556 q 0,-0.24808 0.11359,-0.3766 0.11358,-0.13153 0.32878,-0.13153 0.21521,0 0.33478,0.13153 0.12254,0.12852 0.12254,0.3766 0,0.2451 -0.12254,0.37663 -0.12256,0.12852 -0.33478,0.12852 -0.19129,0 -0.31683,-0.11657 -0.12554,-0.11955 -0.12554,-0.38858 z m 6.48689,0.39754 h -0.72632 l -2.98303,-4.58514 h -0.0298 q 0.0598,0.80704 0.0598,1.47955 v 3.10559 h -0.58883 v -5.46391 h 0.71735 l 2.98005,4.56721 h 0.0298 q -0.01,-0.10162 -0.0358,-0.64861 -0.0239,-0.54699 -0.0179,-0.78312 v -3.13548 h 0.5948 z m 4.54629,0 h -3.04579 v -5.46391 h 3.04579 v 0.56492 h -2.40913 v 1.76053 h 2.26268 v 0.55895 h -2.26268 v 2.0116 h 2.40913 z m 2.89263,0 h -0.63665 v -4.89899 h -1.72766 v -0.56492 h 4.09494 v 0.56492 h -1.73063 z"
       id="path5267" /><path
       style="fill:#323569;fill-rule:nonzero;stroke:none;stroke-width:0.1912968;stroke-linecap:square;stroke-miterlimit:10"
       d="m 210.67032,196.89762 q 0.8728,0 1.56624,0.14347 l -0.27498,1.84123 q -0.81301,-0.17935 -1.43473,-0.17935 -1.59015,0 -2.71999,1.29126 -1.12986,1.29125 -1.12986,3.21618 v 7.03015 h -1.9847 v -13.10384 h 1.63798 l 0.22716,2.4271 h 0.0956 q 0.72933,-1.27932 1.75753,-1.97276 1.02823,-0.69344 2.2597,-0.69344 z m 9.55288,13.58207 q -2.90531,0 -4.58514,-1.7695 -1.67982,-1.76949 -1.67982,-4.91394 0,-3.16835 1.56026,-5.0335 1.56026,-1.86513 4.1906,-1.86513 2.46295,0 3.89767,1.62004 1.43471,1.62005 1.43471,4.27428 v 1.25539 h -9.02681 q 0.0598,2.30751 1.16572,3.50311 1.10594,1.19562 3.11455,1.19562 2.11622,0 4.18462,-0.88475 v 1.7695 q -1.05214,0.45433 -1.99068,0.6516 -0.93855,0.19728 -2.26568,0.19728 z m -0.53802,-11.92018 q -1.5782,0 -2.51675,1.02821 -0.93855,1.02823 -1.10593,2.84554 h 6.85082 q 0,-1.8771 -0.83693,-2.87542 -0.83691,-0.99833 -2.39121,-0.99833 z"
       id="path5271" /><path
       style="fill:#323569;fill-rule:nonzero;stroke:none;stroke-width:0.1912968;stroke-linecap:square;stroke-miterlimit:10"
       d="m 190.31858,184.34602 q 6.42935,0 11.34031,4.086 0.41548,0.3228 0.41548,0.91762 0,0.55297 -0.36765,0.98937 -0.36766,0.43638 -1.01029,0.43638 -0.50514,0 -1.14778,-0.55296 -3.49117,-3.12053 -9.23007,-3.12053 -4.03816,0 -7.55025,2.15807 -3.51209,2.15806 -5.58049,5.76282 -2.0654,3.60175 -2.0654,7.68773 0,4.22347 2.04149,7.82824 2.04449,3.60474 5.55658,5.71797 3.51208,2.11024 7.59807,2.11024 5.41908,0 9.50505,-3.35069 0.31984,-0.23015 0.68747,-0.23015 0.55297,0 0.98638,0.41248 0.43639,0.41249 0.43639,1.01029 0,0.59781 -0.31982,0.96545 -3.94848,3.94848 -11.29547,3.94848 -4.8183,0 -8.95209,-2.50179 -4.13083,-2.5048 -6.56388,-6.74919 -2.43305,-4.24738 -2.43305,-9.16133 0,-4.91095 2.40915,-9.13442 2.40913,-4.22646 6.51902,-6.72827 4.1099,-2.50181 9.02085,-2.50181 z"
       id="path5275" /><path
       style="fill:#01bfe1;fill-rule:evenodd;stroke:none;stroke-width:0.1912968;stroke-linecap:square;stroke-miterlimit:10"
       d="m 185.47325,203.17549 v 0 c 0,-3.13124 2.37921,-5.6696 5.31414,-5.6696 v 0 c 1.40939,0 2.76106,0.59731 3.75766,1.66058 0.99659,1.06326 1.55646,2.50535 1.55646,4.00902 v 0 c 0,3.13125 -2.3792,5.66962 -5.31412,5.66962 v 0 c -2.93493,0 -5.31414,-2.53837 -5.31414,-5.66962 z"
       id="path5277" /></g></g></svg>