<?xml version="1.0" encoding="UTF-8" standalone="no"?>
<svg
   xmlns:dc="http://purl.org/dc/elements/1.1/"
   xmlns:cc="http://creativecommons.org/ns#"
   xmlns:rdf="http://www.w3.org/1999/02/22-rdf-syntax-ns#"
   xmlns:svg="http://www.w3.org/2000/svg"
   xmlns="http://www.w3.org/2000/svg"
   id="svg964"
   xml:space="preserve"
   viewBox="-26 -20 60.17143 59.616"
   height="54"
   width="54"
   version="1.1"><metadata
   id="metadata968"><rdf:RDF><cc:Work
       rdf:about=""><dc:format>image/svg+xml</dc:format><dc:type
         rdf:resource="http://purl.org/dc/dcmitype/StillImage" /><dc:title></dc:title></cc:Work></rdf:RDF></metadata>
	<defs
   id="defs944">
		<clipPath
   id="hexagon">
			<path
   id="path926"
   d="M 435.279,113.284 247.191,4.692 c -10.835,-6.257 -28.567,-6.257 -39.402,0 L 19.701,113.284 C 8.865,119.539 0,134.896 0,147.408 v 217.185 c 0.843,14.571 8.286,26.639 19.701,34.123 l 188.088,108.592 c 10.835,6.257 28.567,6.257 39.402,0 L 435.279,398.716 c 12.248,-8.146 19.219,-20.408 19.701,-34.123 V 147.408 c -0.44,-13.165 -8.323,-26.443 -19.701,-34.124 z" />
		</clipPath>

		<linearGradient
   y2="235.867"
   x2="261.77249"
   y1="55.8074"
   x1="121.0946"
   gradientUnits="userSpaceOnUse"
   id="top">
			<stop
   id="stop929"
   style="stop-color: #A47EDE"
   offset="0" />
			<stop
   id="stop931"
   style="stop-color: #9866D3"
   offset="1" />
		</linearGradient>

		<linearGradient
   y2="372.77261"
   x2="443.46381"
   y1="207.291"
   x1="314.17542"
   gradientUnits="userSpaceOnUse"
   id="centre">
			<stop
   id="stop934"
   style="stop-color: #3B009B"
   offset="0" />
			<stop
   id="stop936"
   style="stop-color: #390086"
   offset="1" />
		</linearGradient>

		<linearGradient
   y2="502.09399"
   x2="252.74049"
   y1="326.16309"
   x1="115.2882"
   gradientUnits="userSpaceOnUse"
   id="bottom">
			<stop
   id="stop939"
   style="stop-color: #340084"
   offset="0" />
			<stop
   id="stop941"
   style="stop-color: #290064"
   offset="1" />
		</linearGradient>
	<style
   id="style5216">.cls-1{fill:#5c2d91;}.cls-2,.cls-3{fill:#fff;}.cls-2{opacity:0.1;}.cls-4{fill:#f2f2f2;}</style></defs>

	

	

	
<g
   transform="matrix(1.1142857,0,0,1.1142857,-217.18259,-209.89244)"
   id="g5307"
   style="fill:none;stroke:none;stroke-linecap:square;stroke-miterlimit:10"><g
     clip-path="url(#p.0)"
     id="g5285"><path
       style="fill:#0072c6;stroke-width:0.32576704"
       d="m 200.88111,174.79915 -15.52604,13.46396 -13.24894,23.78099 H 184.052 Z m 2.06538,3.15016 -6.6261,18.67623 12.70491,15.96257 -24.64753,4.23498 h 40.3951 z"
       id="path5333" /></g></g></svg>