<?xml version="1.0" encoding="UTF-8" standalone="no"?>
<svg
   xmlns:dc="http://purl.org/dc/elements/1.1/"
   xmlns:cc="http://creativecommons.org/ns#"
   xmlns:rdf="http://www.w3.org/1999/02/22-rdf-syntax-ns#"
   xmlns:svg="http://www.w3.org/2000/svg"
   xmlns="http://www.w3.org/2000/svg"
   id="svg964"
   xml:space="preserve"
   viewBox="-26 -20 60.17143 59.616"
   height="54"
   width="54"
   version="1.1"><metadata
   id="metadata968"><rdf:RDF><cc:Work
       rdf:about=""><dc:format>image/svg+xml</dc:format><dc:type
         rdf:resource="http://purl.org/dc/dcmitype/StillImage" /><dc:title></dc:title></cc:Work></rdf:RDF></metadata>
	<defs
   id="defs944">
		<clipPath
   id="hexagon">
			<path
   id="path926"
   d="M 435.279,113.284 247.191,4.692 c -10.835,-6.257 -28.567,-6.257 -39.402,0 L 19.701,113.284 C 8.865,119.539 0,134.896 0,147.408 v 217.185 c 0.843,14.571 8.286,26.639 19.701,34.123 l 188.088,108.592 c 10.835,6.257 28.567,6.257 39.402,0 L 435.279,398.716 c 12.248,-8.146 19.219,-20.408 19.701,-34.123 V 147.408 c -0.44,-13.165 -8.323,-26.443 -19.701,-34.124 z" />
		</clipPath>

		<linearGradient
   y2="235.867"
   x2="261.77249"
   y1="55.8074"
   x1="121.0946"
   gradientUnits="userSpaceOnUse"
   id="top">
			<stop
   id="stop929"
   style="stop-color: #A47EDE"
   offset="0" />
			<stop
   id="stop931"
   style="stop-color: #9866D3"
   offset="1" />
		</linearGradient>

		<linearGradient
   y2="372.77261"
   x2="443.46381"
   y1="207.291"
   x1="314.17542"
   gradientUnits="userSpaceOnUse"
   id="centre">
			<stop
   id="stop934"
   style="stop-color: #3B009B"
   offset="0" />
			<stop
   id="stop936"
   style="stop-color: #390086"
   offset="1" />
		</linearGradient>

		<linearGradient
   y2="502.09399"
   x2="252.74049"
   y1="326.16309"
   x1="115.2882"
   gradientUnits="userSpaceOnUse"
   id="bottom">
			<stop
   id="stop939"
   style="stop-color: #340084"
   offset="0" />
			<stop
   id="stop941"
   style="stop-color: #290064"
   offset="1" />
		</linearGradient>
	<style
   id="style5216">.cls-1{fill:#5c2d91;}.cls-2,.cls-3{fill:#fff;}.cls-2{opacity:0.1;}.cls-4{fill:#f2f2f2;}</style></defs>

	

	

	
<g
   transform="matrix(1.1142857,0,0,1.1142857,-217.18259,-209.89244)"
   id="g5307"
   style="fill:none;stroke:none;stroke-linecap:square;stroke-miterlimit:10"><g
     clip-path="url(#p.0)"
     id="g5285"><g
       transform="matrix(0.13136452,0,0,0.13136452,172.57877,170.74907)"
       id="g5360"><path
         style="fill:#007acc"
         class="st0"
         d="M 0,200 V 0 H 400 V 400 H 0"
         id="path5346" /><path
         style="fill:#ffffff"
         class="st1"
         d="M 87.7,200.7 V 217 h 52 v 148 h 36.9 V 217 h 52 v -16 c 0,-9 0,-16.3 -0.4,-16.5 0,-0.3 -31.7,-0.4 -70.2,-0.4 l -70,0.3 v 16.4 z M 321.4,184 c 10.2,2.4 18,7 25,14.3 3.7,4 9.2,11 9.6,12.8 0,0.6 -17.3,12.3 -27.8,18.8 -0.4,0.3 -2,-1.4 -3.6,-4 -5.2,-7.4 -10.5,-10.6 -18.8,-11.2 -12,-0.8 -20,5.5 -20,16 0,3.2 0.6,5 1.8,7.6 2.7,5.5 7.7,8.8 23.2,15.6 28.6,12.3 41,20.4 48.5,32 8.5,13 10.4,33.4 4.7,48.7 -6.4,16.7 -22,28 -44.3,31.7 -7,1.2 -23,1 -30.5,-0.3 -16,-3 -31.3,-11 -40.7,-21.3 -3.7,-4 -10.8,-14.7 -10.4,-15.4 l 3.8,-2.4 15,-8.7 11.3,-6.6 2.6,3.5 c 3.3,5.2 10.7,12.2 15,14.6 13,6.7 30.4,5.8 39,-2 3.7,-3.4 5.3,-7 5.3,-12 0,-4.6 -0.7,-6.7 -3,-10.2 -3.2,-4.4 -9.6,-8 -27.6,-16 -20.7,-8.8 -29.5,-14.4 -37.7,-23 -4.7,-5.2 -9,-13.3 -11,-20 -1.5,-5.8 -2,-20 -0.6,-25.7 4.3,-20 19.4,-34 41,-38 7,-1.4 23.5,-0.8 30.4,1 z"
         id="path5348" /></g></g></g><style
   id="style5344">.st0{fill:#007acc}.st1{fill:#fff}</style></svg>