<?xml version="1.0" encoding="UTF-8" standalone="no"?>
<svg
   xmlns:dc="http://purl.org/dc/elements/1.1/"
   xmlns:cc="http://creativecommons.org/ns#"
   xmlns:rdf="http://www.w3.org/1999/02/22-rdf-syntax-ns#"
   xmlns:svg="http://www.w3.org/2000/svg"
   xmlns="http://www.w3.org/2000/svg"
   version="1.1"
   width="54"
   height="54"
   viewBox="-26 -20 60.17143 59.616"
   xml:space="preserve"
   id="svg964"><metadata
   id="metadata968"><rdf:RDF><cc:Work
       rdf:about=""><dc:format>image/svg+xml</dc:format><dc:type
         rdf:resource="http://purl.org/dc/dcmitype/StillImage" /><dc:title></dc:title></cc:Work></rdf:RDF></metadata>
	<defs
   id="defs944">
		<clipPath
   id="hexagon">
			<path
   d="M 435.279,113.284 247.191,4.692 c -10.835,-6.257 -28.567,-6.257 -39.402,0 L 19.701,113.284 C 8.865,119.539 0,134.896 0,147.408 v 217.185 c 0.843,14.571 8.286,26.639 19.701,34.123 l 188.088,108.592 c 10.835,6.257 28.567,6.257 39.402,0 L 435.279,398.716 c 12.248,-8.146 19.219,-20.408 19.701,-34.123 V 147.408 c -0.44,-13.165 -8.323,-26.443 -19.701,-34.124 z"
   id="path926" />
		</clipPath>

		<linearGradient
   id="top"
   gradientUnits="userSpaceOnUse"
   x1="121.0946"
   y1="55.8074"
   x2="261.77249"
   y2="235.867">
			<stop
   offset="0"
   style="stop-color: #A47EDE"
   id="stop929" />
			<stop
   offset="1"
   style="stop-color: #9866D3"
   id="stop931" />
		</linearGradient>

		<linearGradient
   id="centre"
   gradientUnits="userSpaceOnUse"
   x1="314.17542"
   y1="207.291"
   x2="443.46381"
   y2="372.77261">
			<stop
   offset="0"
   style="stop-color: #3B009B"
   id="stop934" />
			<stop
   offset="1"
   style="stop-color: #390086"
   id="stop936" />
		</linearGradient>

		<linearGradient
   id="bottom"
   gradientUnits="userSpaceOnUse"
   x1="115.2882"
   y1="326.16309"
   x2="252.74049"
   y2="502.09399">
			<stop
   offset="0"
   style="stop-color: #340084"
   id="stop939" />
			<stop
   offset="1"
   style="stop-color: #290064"
   id="stop941" />
		</linearGradient>
	<style
   id="style5216">.cls-1{fill:#5c2d91;}.cls-2,.cls-3{fill:#fff;}.cls-2{opacity:0.1;}.cls-4{fill:#f2f2f2;}</style></defs>

	

	

	
<g
   style="fill:none;stroke:none;stroke-linecap:square;stroke-miterlimit:10"
   id="g5307"
   transform="matrix(1.1142857,0,0,1.1142857,-217.18259,-209.89244)"><g
     id="g5285"
     clip-path="url(#p.0)"><g
       id="g5360"
       transform="matrix(0.13136452,0,0,0.13136452,172.57877,170.74907)"><rect
         y="6.9324062e-07"
         x="-6.348165e-07"
         height="400"
         width="400"
         id="rect4534"
         style="opacity:1;fill:#f7df1e;fill-opacity:1;stroke:none;stroke-width:14.38564873;stroke-linecap:square;stroke-linejoin:bevel;stroke-miterlimit:4;stroke-dasharray:none;stroke-dashoffset:0;stroke-opacity:1" /><path
         id="path4532"
         d="m 156.96,368.54507 c -0.396,-0.0329 -1.62,-0.13629 -2.72,-0.22976 -8.49049,-0.72149 -16.56144,-3.0131 -23.6,-6.70085 -5.07065,-2.65668 -9.11663,-5.65251 -13.28677,-9.83816 -4.6558,-4.6731 -8.41554,-9.90795 -11.40972,-15.88625 l -0.81635,-1.62997 6.57077,-3.97003 c 3.61393,-2.18354 10.50632,-6.35341 15.31642,-9.2664 l 8.74565,-5.29637 0.2566,0.41637 c 0.14114,0.22899 0.89023,1.49635 1.66465,2.81635 4.21599,7.18611 7.38794,10.86666 11.47048,13.30965 3.39587,2.03208 7.3698,2.91094 12.28827,2.71763 3.92355,-0.15421 6.59758,-0.70555 9.09496,-1.87528 5.52166,-2.58622 8.42184,-7.76544 9.30043,-16.60896 0.10986,-1.10578 0.16461,-23.4725 0.16461,-67.24 V 183.68 h 18.88402 18.884 l -0.0581,66.92 c -0.0424,48.84902 -0.10759,67.37366 -0.2414,68.6 -0.40134,3.67803 -0.71248,5.93418 -1.09219,7.92 -1.52478,7.97421 -4.07837,14.49358 -7.92784,20.24 -8.18213,12.21416 -21.05845,19.13563 -39.00851,20.96846 -1.6573,0.16922 -11.08133,0.33279 -12.48,0.21661 z m 144.16,0 c -0.396,-0.0327 -1.728,-0.13726 -2.96,-0.23243 -23.84862,-1.84234 -43.51936,-12.62693 -55.58242,-30.47341 -1.6483,-2.43854 -2.60537,-4.00523 -3.71211,-6.07656 l -0.80368,-1.50413 0.36911,-0.23513 c 0.203,-0.12933 7.09446,-4.12402 15.31435,-8.87707 l 14.94523,-8.64192 1.41181,2.15123 c 5.40793,8.24032 10.96584,13.48009 17.81771,16.79784 4.69013,2.27101 9.04549,3.36237 14.98862,3.75581 7.15296,0.47353 14.30362,-0.88837 19.09138,-3.63615 1.89245,-1.08609 3.23506,-2.12637 4.65891,-3.60974 1.56107,-1.62635 2.13392,-2.44717 3.02583,-4.33567 0.98492,-2.08545 1.36123,-3.63864 1.4699,-6.06699 0.24285,-5.42664 -1.35157,-9.6439 -5.02165,-13.28233 -4.22344,-4.18704 -8.95449,-6.69562 -28.29299,-15.00194 -7.42566,-3.1895 -10.23042,-4.47693 -14.08,-6.46298 -19.52843,-10.07496 -29.81702,-22.09974 -33.188,-38.78844 -0.63733,-3.15517 -0.94075,-5.70988 -1.13986,-9.59708 -0.49278,-9.62065 1.32434,-18.48385 5.38421,-26.26195 7.06688,-13.53907 20.50675,-22.77305 37.36911,-25.6748 4.5004,-0.77445 6.85809,-0.95507 12.45454,-0.95411 5.7881,0.002 8.85131,0.23245 13.55534,1.02427 15.48629,2.60679 27.33767,10.32421 36.33338,23.65968 1.96094,2.90695 3.27411,5.08965 3.19853,5.31643 -0.0317,0.095 -6.60117,4.37488 -14.59888,9.51085 l -14.5413,9.33813 -1.21353,-2.00965 c -3.84919,-6.37435 -8.35768,-10.57251 -13.45354,-12.52745 -1.15069,-0.44144 -3.59221,-1.0544 -5.2,-1.30549 -1.94498,-0.30376 -6.57667,-0.26463 -8.32,0.0703 -3.99875,0.76821 -7.00382,2.25517 -9.46261,4.68223 -3.33968,3.29662 -4.87992,7.87979 -4.38224,13.03992 0.24621,2.55284 0.6468,4.0492 1.61055,6.01616 1.96867,4.01793 5.35435,6.93992 12.17843,10.51048 2.93385,1.53508 4.94277,2.4459 14.05587,6.37281 9.54067,4.11115 12.09803,5.28011 17.28,7.89864 14.49102,7.3225 23.31498,14.39719 29.31658,23.5048 1.42052,2.15568 3.64736,6.55602 4.52028,8.93229 2.49252,6.78509 3.60584,14.79032 3.26381,23.46771 -0.45184,11.46272 -4.21253,21.59405 -10.99654,29.6248 -1.56461,1.85215 -4.77519,4.98731 -6.58413,6.42949 -9.15096,7.29554 -20.68835,11.5696 -35.52,13.15846 -2.17758,0.23328 -12.71406,0.44538 -14.56,0.29309 z"
         style="fill:#000000;stroke-width:0.16" /></g></g></g><style
   id="style5344">.st0{fill:#007acc}.st1{fill:#fff}</style></svg>