<?xml version="1.0" encoding="UTF-8" standalone="no"?>
<svg
   xmlns:dc="http://purl.org/dc/elements/1.1/"
   xmlns:cc="http://creativecommons.org/ns#"
   xmlns:rdf="http://www.w3.org/1999/02/22-rdf-syntax-ns#"
   xmlns:svg="http://www.w3.org/2000/svg"
   xmlns="http://www.w3.org/2000/svg"
   id="svg964"
   xml:space="preserve"
   viewBox="-26 -20 60.17143 59.616"
   height="54"
   width="54"
   version="1.1"><metadata
   id="metadata968"><rdf:RDF><cc:Work
       rdf:about=""><dc:format>image/svg+xml</dc:format><dc:type
         rdf:resource="http://purl.org/dc/dcmitype/StillImage" /><dc:title></dc:title></cc:Work></rdf:RDF></metadata>
	<defs
   id="defs944">
		<clipPath
   id="hexagon">
			<path
   id="path926"
   d="M 435.279,113.284 247.191,4.692 c -10.835,-6.257 -28.567,-6.257 -39.402,0 L 19.701,113.284 C 8.865,119.539 0,134.896 0,147.408 v 217.185 c 0.843,14.571 8.286,26.639 19.701,34.123 l 188.088,108.592 c 10.835,6.257 28.567,6.257 39.402,0 L 435.279,398.716 c 12.248,-8.146 19.219,-20.408 19.701,-34.123 V 147.408 c -0.44,-13.165 -8.323,-26.443 -19.701,-34.124 z" />
		</clipPath>

		<linearGradient
   y2="235.867"
   x2="261.77249"
   y1="55.8074"
   x1="121.0946"
   gradientUnits="userSpaceOnUse"
   id="top">
			<stop
   id="stop929"
   style="stop-color: #A47EDE"
   offset="0" />
			<stop
   id="stop931"
   style="stop-color: #9866D3"
   offset="1" />
		</linearGradient>

		<linearGradient
   y2="372.77261"
   x2="443.46381"
   y1="207.291"
   x1="314.17542"
   gradientUnits="userSpaceOnUse"
   id="centre">
			<stop
   id="stop934"
   style="stop-color: #3B009B"
   offset="0" />
			<stop
   id="stop936"
   style="stop-color: #390086"
   offset="1" />
		</linearGradient>

		<linearGradient
   y2="502.09399"
   x2="252.74049"
   y1="326.16309"
   x1="115.2882"
   gradientUnits="userSpaceOnUse"
   id="bottom">
			<stop
   id="stop939"
   style="stop-color: #340084"
   offset="0" />
			<stop
   id="stop941"
   style="stop-color: #290064"
   offset="1" />
		</linearGradient>
	<style
   id="style5216">.cls-1{fill:#5c2d91;}.cls-2,.cls-3{fill:#fff;}.cls-2{opacity:0.1;}.cls-4{fill:#f2f2f2;}</style><linearGradient
   gradientTransform="matrix(11.390159,0,0,-11.390159,18353.866,6717.3876)"
   y2="1442.031"
   x2="-672.341"
   y1="1442.031"
   x1="-883.03198"
   gradientUnits="userSpaceOnUse"
   id="d"><stop
     id="stop35"
     stop-color="#e8e7e5"
     offset="0" /><stop
     id="stop37"
     stop-color="#fff"
     offset="1" /></linearGradient><linearGradient
   gradientTransform="matrix(11.390159,0,0,-11.390159,18353.866,6717.3876)"
   y2="1302.2629"
   x2="-680.039"
   y1="1302.2629"
   x1="-874.10303"
   gradientUnits="userSpaceOnUse"
   id="c"><stop
     id="stop26"
     stop-color="#e8e7e5"
     offset="0" /><stop
     id="stop28"
     stop-color="#fff"
     offset="1" /></linearGradient><linearGradient
   gradientTransform="matrix(11.390159,0,0,-11.390159,18353.866,6717.3876)"
   y2="1462.5909"
   x2="-724.552"
   y1="1378.6021"
   x1="-724.552"
   gradientUnits="userSpaceOnUse"
   id="b"><stop
     id="stop19"
     stop-opacity="0"
     stop-color="#d1d3d4"
     offset=".387" /><stop
     id="stop21"
     stop-color="#d1d3d4"
     offset="1" /></linearGradient><linearGradient
   gradientTransform="matrix(11.390159,0,0,-11.390159,18353.866,6717.3876)"
   y2="1419.1021"
   x2="-825.508"
   y1="1338.301"
   x1="-825.508"
   gradientUnits="userSpaceOnUse"
   id="a"><stop
     id="stop12"
     stop-opacity="0"
     stop-color="#d1d3d4"
     offset=".387" /><stop
     id="stop14"
     stop-color="#d1d3d4"
     offset="1" /></linearGradient><linearGradient
   gradientTransform="matrix(1.0278575,0,0,-1.0278575,994.81739,1583.4925)"
   y2="1419.1021"
   x2="-825.508"
   y1="1338.301"
   x1="-825.508"
   gradientUnits="userSpaceOnUse"
   id="a-8"><stop
     id="stop12-7"
     stop-opacity="0"
     stop-color="#d1d3d4"
     offset=".387" /><stop
     id="stop14-1"
     stop-color="#d1d3d4"
     offset="1" /></linearGradient><linearGradient
   gradientTransform="matrix(1.0278575,0,0,-1.0278575,994.81739,1583.4925)"
   y2="1462.5909"
   x2="-724.552"
   y1="1378.6021"
   x1="-724.552"
   gradientUnits="userSpaceOnUse"
   id="b-0"><stop
     id="stop19-9"
     stop-opacity="0"
     stop-color="#d1d3d4"
     offset=".387" /><stop
     id="stop21-5"
     stop-color="#d1d3d4"
     offset="1" /></linearGradient><linearGradient
   gradientTransform="matrix(1.0278575,0,0,-1.0278575,994.81739,1583.4925)"
   y2="1302.2629"
   x2="-680.039"
   y1="1302.2629"
   x1="-874.10303"
   gradientUnits="userSpaceOnUse"
   id="c-6"><stop
     id="stop26-4"
     stop-color="#e8e7e5"
     offset="0" /><stop
     id="stop28-4"
     stop-color="#fff"
     offset="1" /></linearGradient><linearGradient
   gradientTransform="matrix(1.0278575,0,0,-1.0278575,994.81739,1583.4925)"
   y2="1442.031"
   x2="-672.341"
   y1="1442.031"
   x1="-883.03198"
   gradientUnits="userSpaceOnUse"
   id="d-7"><stop
     id="stop35-3"
     stop-color="#e8e7e5"
     offset="0" /><stop
     id="stop37-1"
     stop-color="#fff"
     offset="1" /></linearGradient></defs>

	

	

	
<g
   transform="matrix(1.1142857,0,0,1.1142857,-217.18259,-209.89244)"
   id="g5307"
   style="fill:none;stroke:none;stroke-linecap:square;stroke-miterlimit:10"><g
     clip-path="url(#p.0)"
     id="g5285"><g
       transform="matrix(0.13136452,0,0,0.13136452,172.57877,170.74907)"
       id="g5360"><g
         id="g5629"><path
           style="fill:#2062af;stroke:none;stroke-width:1.02785742;stroke-linecap:square;stroke-miterlimit:10"
           d="M 336.54665,359.00074 196.54212,396.69842 56.535596,359.00074 24.227976,8.9895816 H 368.85838 Z"
           id="path4" /><path
           style="fill:#3c9cd7;stroke:none;stroke-width:1.02785742;stroke-linecap:square;stroke-miterlimit:10"
           d="M 196.54109,37.339916 V 366.63155 l 0.31658,0.0864 113.29966,-30.50888 26.15181,-298.869092 z"
           id="path6" /><path
           style="fill:#ffffff;stroke:none;stroke-width:1.02785742;stroke-linecap:square;stroke-miterlimit:10"
           d="m 196.41673,124.85686 -100.205845,41.73307 3.32308,41.31881 96.882765,-41.42364 103.05817,-44.06221 4.27281,-42.26756 z"
           id="path10" /><path
           style="fill:url(#a-8);stroke:none;stroke-width:1.02785742;stroke-linecap:square;stroke-miterlimit:10"
           d="m 96.209865,166.58993 3.32305,41.31881 96.882785,-41.42364 v -41.62824 z"
           id="path17" /><path
           style="fill:url(#b-0);stroke:none;stroke-width:1.02785742;stroke-linecap:square;stroke-miterlimit:10"
           d="M 303.74771,80.156373 196.41673,124.85686 V 166.4851 L 299.4749,122.42289 Z"
           id="path24" /><path
           style="fill:url(#c-6);stroke:none;stroke-width:1.02785742;stroke-linecap:square;stroke-miterlimit:10"
           d="m 96.364035,166.58993 3.3241,41.31881 148.653955,0.47388 -3.32519,55.09107 -48.91574,13.77126 -47.02242,-11.87279 -2.84922,-34.19475 h -43.69216 l 5.69946,66.01411 88.33923,26.11998 87.86021,-25.6461 11.39896,-131.07547 z"
           id="path31" /><path
           style="opacity:0.05;fill:none;stroke:none;stroke-width:1.02785742;stroke-linecap:square;stroke-miterlimit:10"
           d="M 196.41673,166.58993 H 96.210885 l 3.32308,41.31881 96.882765,0.30942 z m 0,110.52343 -0.47487,0.13262 -47.01625,-11.8728 -2.84923,-34.19477 h -43.69115 l 5.69845,66.01415 88.33305,26.11995 z"
           id="path33" /><path
           style="fill:url(#d-7);stroke:none;stroke-width:1.02785742;stroke-linecap:square;stroke-miterlimit:10"
           d="M 87.186308,80.156373 H 303.74771 L 299.4749,122.42391 H 92.409885 Z"
           id="path40" /><path
           style="opacity:0.05;fill:none;stroke:none;stroke-width:1.02785742;stroke-linecap:square;stroke-miterlimit:10"
           d="M 196.41673,80.156373 H 87.186308 l 5.223577,42.267537 H 196.41673 Z"
           id="path42" /></g></g></g></g><style
   id="style5344">.st0{fill:#007acc}.st1{fill:#fff}</style></svg>