<?xml version="1.0" encoding="UTF-8" standalone="no"?>
<svg
   xmlns:dc="http://purl.org/dc/elements/1.1/"
   xmlns:cc="http://creativecommons.org/ns#"
   xmlns:rdf="http://www.w3.org/1999/02/22-rdf-syntax-ns#"
   xmlns:svg="http://www.w3.org/2000/svg"
   xmlns="http://www.w3.org/2000/svg"
   width="54"
   height="54"
   viewBox="0 0 14.287499 14.287499"
   version="1.1"
   id="svg8">
  <defs
     id="defs2" />
  <metadata
     id="metadata5">
    <rdf:RDF>
      <cc:Work
         rdf:about="">
        <dc:format>image/svg+xml</dc:format>
        <dc:type
           rdf:resource="http://purl.org/dc/dcmitype/StillImage" />
        <dc:title></dc:title>
      </cc:Work>
    </rdf:RDF>
  </metadata>
  <g
     id="layer1"
     transform="translate(0,-282.71249)">
    <g
       id="g863"
       transform="translate(-21.327838,204.48574)">
      <path
         id="path853"
         d="m 25.668084,91.621932 c -2.004194,-0.320112 -3.678951,-1.955724 -4.101295,-3.932578 -0.564986,-2.174282 0.407827,-4.63789 2.330621,-5.809783 0.922722,-0.607255 2.031798,-0.830063 3.12339,-0.811065 1.109828,-0.06575 2.289224,0.09884 3.308237,-0.452453 0.578792,-0.149882 1.180185,-0.944434 1.564139,-0.988143 -0.04127,0.757913 -0.395968,1.441096 -0.712818,2.113255 0.698846,-0.0125 1.416502,-0.44454 2.006194,-0.83712 0.683137,-0.505127 1.1592,-1.221908 1.590059,-1.940107 0.488181,0.03165 0.591952,1.151876 0.744428,1.639902 0.511047,2.843398 -0.76688,5.854731 -3.0605,7.578569 -1.783749,1.392243 -4.172374,2.038441 -6.404807,1.608911 -1.641461,-0.376915 -2.979833,-2.000943 -2.769998,-3.718649 0.144195,-1.741897 1.746572,-3.182512 3.490644,-3.155963 1.923941,-0.04653 3.658007,1.761389 3.490444,3.687407 0.124399,0.809876 -1.078684,1.224922 -1.415667,0.470965 -0.213324,-0.757464 0.01836,-1.578502 -0.183417,-2.33887 -0.417221,-0.844367 -1.483552,-0.550977 -2.236479,-0.561977 -1.3723,0.04596 -2.422237,1.605845 -1.900887,2.88937 0.347149,1.023295 1.503975,1.6702 2.555908,1.389758 0.460928,-0.03356 0.835484,-0.492627 1.151536,-0.663385 0.575883,0.828275 1.973065,0.841387 2.545315,-0.0029 0.68104,-1.000898 0.378888,-2.333435 -0.07997,-3.361546 -0.706349,-1.350693 -2.10112,-2.357019 -3.645299,-2.432802 -2.003433,-0.175203 -3.993924,1.20544 -4.538113,3.140795 -0.436775,1.520878 -0.04595,3.288494 1.127595,4.383749 1.069077,1.07133 2.642561,1.437125 4.114312,1.310958 1.656208,-0.05609 3.271472,-0.610751 4.67744,-1.473386 -1.459112,1.629658 -3.69082,2.446233 -5.855842,2.331498 -0.305569,-0.0082 -0.612835,-0.0161 -0.915172,-0.06446 z m 0.492315,-4.074489 c -0.824889,-0.262526 -1.151291,-1.426823 -0.536593,-2.04953 0.559883,-0.64034 1.456896,-0.404562 2.207824,-0.428714 -0.02067,0.569205 0.05357,1.150592 -0.05952,1.709683 -0.239365,0.64978 -0.960192,0.977382 -1.611705,0.768561 z"
         style="fill:#5c2d91;fill-opacity:1;stroke-width:0.17952634" />
    </g>
  </g>
</svg>
